<?xml version="1.0" encoding="UTF-8" standalone="no"?>
<svg width="50px" height="50px" viewBox="0 0 50 50" version="1.1" xmlns="http://www.w3.org/2000/svg" xmlns:xlink="http://www.w3.org/1999/xlink">
    <!-- Generator: Sketch 3.6.1 (26313) - http://www.bohemiancoding.com/sketch -->
    <title>Fill 1</title>
    <desc>Created with Sketch.</desc>
    <defs>
        <radialGradient cx="16.205132%" cy="-25.638464%" fx="16.205132%" fy="-25.638464%" r="217.45588%" id="radialGradient-1">
            <stop stop-color="#FFFFFF" offset="0%"></stop>
            <stop stop-color="#000000" stop-opacity="0.5" offset="100%"></stop>
        </radialGradient>
        <filter x="-50%" y="-50%" width="200%" height="200%" filterUnits="objectBoundingBox" id="filter-2">
            <feOffset dx="0" dy="1" in="SourceAlpha" result="shadowOffsetInner1"></feOffset>
            <feGaussianBlur stdDeviation="0" in="shadowOffsetInner1" result="shadowBlurInner1"></feGaussianBlur>
            <feComposite in="shadowBlurInner1" in2="SourceAlpha" operator="arithmetic" k2="-1" k3="1" result="shadowInnerInner1"></feComposite>
            <feColorMatrix values="0 0 0 0 1   0 0 0 0 1   0 0 0 0 1  0 0 0 0.0854591259 0" in="shadowInnerInner1" type="matrix" result="shadowMatrixInner1"></feColorMatrix>
            <feMerge>
                <feMergeNode in="SourceGraphic"></feMergeNode>
                <feMergeNode in="shadowMatrixInner1"></feMergeNode>
            </feMerge>
        </filter>
        <path d="M40.9268219,54.599026 L46.2567382,49.2691097 C46.3039891,49.2218345 46.3806267,49.2218345 46.4279018,49.2691097 L53.2922635,56.1334472 C53.3395145,56.1807223 53.325499,56.2330566 53.2609404,56.2503642 L44.8176419,58.5127695 C44.7530834,58.5300771 44.6624303,58.5057738 44.6151552,58.4585229 L40.9268219,54.7701896 C40.8795468,54.7229145 40.8795468,54.6463011 40.9268219,54.599026 M31.1823554,58.5127695 L22.7389842,56.2503642 C22.6744257,56.2330566 22.6604102,56.1807223 22.7076611,56.1334472 L29.572047,49.2690855 C29.6193222,49.2218103 29.6959355,49.2218103 29.7432107,49.2690855 L35.0731512,54.599026 C35.1204263,54.6463011 35.1204263,54.7229145 35.0731512,54.7701896 L31.3848421,58.4585229 C31.3375912,58.5057738 31.2469381,58.5300771 31.1823554,58.5127695 M21.400974,40.9268246 L26.7308661,46.2567409 C26.778117,46.3039919 26.778117,46.3806294 26.7308661,46.4279046 L19.8664802,53.292242 C19.819205,53.3395172 19.7668708,53.3255017 19.7495632,53.2609189 L17.4872305,44.8176446 C17.4699229,44.7530619 17.4942262,44.6624088 17.5414771,44.6151579 L21.2298104,40.9268246 C21.2770613,40.8795737 21.3536989,40.8795737 21.400974,40.9268246 M17.4872305,31.1823581 L19.7495632,22.7390596 C19.7668708,22.674501 19.819205,22.6604855 19.8664802,22.7077365 L26.7308661,29.5720982 C26.778117,29.6193733 26.778117,29.6959866 26.7308661,29.7432618 L21.400974,35.0731539 C21.3536989,35.120429 21.2770613,35.120429 21.2298104,35.0731539 L17.5414771,31.3848448 C17.4942262,31.3375697 17.4699229,31.2469166 17.4872305,31.1823581 M35.0731754,21.4009525 L29.7432107,26.7309172 C29.6959355,26.7781682 29.6193222,26.7781682 29.572047,26.7309172 L22.7076611,19.8665555 C22.6604102,19.8192804 22.6744257,19.7669461 22.7389842,19.7496385 L31.1823554,17.4872332 C31.2469381,17.4699256 31.3375912,17.4942047 31.3848421,17.5414798 L35.0731754,21.2297889 C35.1204263,21.277064 35.1204263,21.3537016 35.0731754,21.4009525 M44.8176419,17.4872332 L53.2609404,19.7496385 C53.325499,19.7669461 53.3395145,19.8192804 53.2922635,19.8665555 L46.4279018,26.7308688 C46.3806509,26.778144 46.3040134,26.778144 46.2567382,26.7308688 L40.9268461,21.4009525 C40.879571,21.3537016 40.879571,21.277064 40.9268461,21.2297889 L44.6151552,17.5414798 C44.6624303,17.4942047 44.7530834,17.4699256 44.8176419,17.4872332 M54.5989991,35.0731297 L49.269107,29.7432376 C49.2218318,29.6959624 49.2218318,29.6193249 49.269107,29.5720739 L56.1334203,22.7077365 C56.1806954,22.6604855 56.2330297,22.674501 56.2503373,22.7390596 L58.5127184,31.1823581 C58.5300018,31.2469166 58.5057227,31.3375697 58.4584476,31.3848448 L54.7701627,35.0731297 C54.7229118,35.1204048 54.6462742,35.1204048 54.5989991,35.0731297 M40.9267493,37.9144074 L46.2566898,32.5844911 C46.3039407,32.537216 46.3805783,32.537216 46.4278534,32.5844911 L51.7577455,37.9143832 C51.8050207,37.9616584 51.8050207,38.0382959 51.7577455,38.0855469 L46.4278292,43.4154874 C46.3805541,43.4627625 46.3039165,43.4627625 46.2566656,43.4154874 L40.9267493,38.0855711 C40.8794741,38.0383201 40.8794741,37.9616826 40.9267493,37.9144074 M38.0855442,40.9267762 L43.4154847,46.2566925 C43.4627356,46.3039435 43.4627356,46.380581 43.4154847,46.4278561 L38.0855684,51.7577724 C38.0382932,51.8050476 37.9616799,51.8050476 37.9144047,51.7577724 L32.5844642,46.4278319 C32.5371891,46.3805568 32.5371891,46.3039435 32.5844642,46.2566683 L37.9143805,40.9267762 C37.9616557,40.8795011 38.0382932,40.8795011 38.0855442,40.9267762 M32.5844642,29.5721708 L37.9144289,24.2422061 C37.9616799,24.1949551 38.0383174,24.1949551 38.0855926,24.2422061 L43.4154847,29.5721224 C43.4627598,29.6193975 43.4627598,29.6960351 43.4154847,29.743286 L38.0855442,35.0732265 C38.0382932,35.1205017 37.9616557,35.1205017 37.9143805,35.0732265 L32.5844642,29.7433344 C32.5371891,29.6960593 32.5371891,29.6194217 32.5844642,29.5721708 M35.0731996,38.0855711 L29.7432833,43.4154874 C29.6960081,43.4627383 29.6193706,43.4627383 29.5721196,43.4154874 L24.2422276,38.0855711 C24.1949524,38.0383201 24.1949524,37.9616826 24.2422276,37.9144074 L29.5721196,32.5845153 C29.6193706,32.5372402 29.6960081,32.5372402 29.7432833,32.5845153 L35.0731996,37.9144074 C35.1204747,37.9616826 35.1204747,38.0383201 35.0731996,38.0855711 M58.5127668,44.8176446 L56.2503615,53.2609431 C56.2330539,53.3255017 56.1807196,53.3395414 56.1334445,53.2922662 L49.2690828,46.4279046 C49.2218076,46.3806536 49.2218076,46.3040161 49.2690828,46.2567409 L54.5989991,40.9268004 C54.6462742,40.8795495 54.7229118,40.8795495 54.7701627,40.9268004 L58.4585202,44.6151579 C58.5057953,44.6624088 58.5300744,44.7530619 58.5127668,44.8176446 M57.6114163,37.9143832 L62.940098,32.5857015 C62.9873732,32.5384263 63.0116522,32.4477732 62.9943688,32.3832147 L58.9307391,17.217501 C58.9134316,17.1529183 58.8470817,17.0865684 58.782499,17.0692609 L43.6167853,13.0055827 C43.5522268,12.9882752 43.4615737,13.0125542 43.4142985,13.0598294 L38.0855926,18.3885353 C38.0383174,18.4358105 37.9616799,18.4358105 37.9144289,18.3885353 L32.5856987,13.0598294 C32.5384478,13.0125542 32.4477705,12.9882752 32.383212,13.0055827 L17.2174257,17.0692609 C17.1528671,17.0865684 17.0864931,17.1529183 17.0692097,17.217501 L13.00558,32.3832147 C12.9882724,32.4477732 13.0125757,32.5384263 13.0598266,32.5857015 L18.3885568,37.9144074 C18.4358078,37.9616826 18.4358078,38.0383201 18.3885568,38.0855711 L13.0598266,43.4143013 C13.0125757,43.4615522 12.9882724,43.5522295 13.00558,43.616788 L17.0692097,58.7824291 C17.0864931,58.8470118 17.1528671,58.9133616 17.2174257,58.9306692 L32.383212,62.99442 C32.4477705,63.0117276 32.5384478,62.9874243 32.5856987,62.9401734 L37.9144047,57.6114432 C37.9616799,57.564168 38.0382932,57.564168 38.0855684,57.6114432 L43.4142985,62.9401734 C43.4615737,62.9874243 43.5522268,63.0117276 43.6167853,62.99442 L58.782499,58.9306692 C58.8470817,58.9133616 58.9134316,58.8470118 58.9307391,58.7824291 L62.9944173,43.616788 C63.0117248,43.5522295 62.9874458,43.4615522 62.9401706,43.4143013 L57.6114163,38.0855469 C57.5641653,38.0382959 57.5641653,37.9616584 57.6114163,37.9143832" id="path-3"></path>
    </defs>
    <g id="Index-Home" stroke="none" stroke-width="1" fill="none" fill-rule="evenodd" filter="url(#filter-2)">
        <g id="Index" transform="translate(-82.000000, -81.000000)">
            <g id="NewNav" transform="translate(69.000000, 68.000000)">
                <g id="Fill-1">
                    <use fill="#37C3F6" xlink:href="#path-3"></use>
                    <use fill-opacity="0.00999999978" fill="none" xlink:href="#path-3"></use>
                    <use fill-opacity="0.300000012" fill="url(#radialGradient-1)" style="mix-blend-mode: lighten;" xlink:href="#path-3"></use>
                </g>
            </g>
        </g>
    </g>
</svg>